<svg width="32" height="32" viewBox="0 0 32 32" fill="none" xmlns="http://www.w3.org/2000/svg">
<path fill-rule="evenodd" clip-rule="evenodd" d="M29.7276 18.762C28.4452 25.1712 22.7865 30 16 30C9.21349 30 3.55482 25.1712 2.27239 18.762C5.01758 21.7218 10.0199 26 16 26C21.9801 26 26.9824 21.7218 29.7276 18.762ZM29.7276 13.238C26.9824 10.2782 21.9801 6 16 6C10.0199 6 5.01758 10.2782 2.27239 13.238C3.55482 6.82881 9.21349 2 16 2C22.7865 2 28.4452 6.82881 29.7276 13.238ZM0 16C0 7.16344 7.16344 0 16 0C24.8366 0 32 7.16344 32 16C32 24.8366 24.8366 32 16 32C7.16344 32 0 24.8366 0 16ZM2.74713 16.2778C2.66632 16.1814 2.58967 16.0887 2.51727 16C2.58967 15.9113 2.66632 15.8186 2.74713 15.7222C3.48451 14.8423 4.55579 13.6712 5.88844 12.5052C8.60491 10.1282 12.1449 8 16 8C19.8551 8 23.3951 10.1282 26.1116 12.5052C27.4442 13.6712 28.5155 14.8423 29.2529 15.7222C29.3337 15.8186 29.4103 15.9113 29.4827 16C29.4103 16.0887 29.3337 16.1814 29.2529 16.2778C28.5155 17.1577 27.4442 18.3288 26.1116 19.4948C23.3951 21.8718 19.8551 24 16 24C12.1449 24 8.60491 21.8718 5.88844 19.4948C4.55579 18.3288 3.48451 17.1577 2.74713 16.2778ZM20 16C20 18.2091 18.2091 20 16 20C13.7909 20 12 18.2091 12 16C12 13.7909 13.7909 12 16 12C18.2091 12 20 13.7909 20 16Z" fill="black"/>
</svg>
